<?xml version="1.0" encoding="UTF-8"?>
<!DOCTYPE svg PUBLIC "-//W3C//DTD SVG 1.1//EN" "http://www.w3.org/Graphics/SVG/1.1/DTD/svg11.dtd">
<svg xmlns="http://www.w3.org/2000/svg" version="1.1" width="224px" height="224px" style="shape-rendering:geometricPrecision; text-rendering:geometricPrecision; image-rendering:optimizeQuality; fill-rule:evenodd; clip-rule:evenodd" xmlns:xlink="http://www.w3.org/1999/xlink">
<g><path style="opacity:0.996" fill="#a3dcdb" d="M 96.5,-0.5 C 99.8333,-0.5 103.167,-0.5 106.5,-0.5C 106.333,27.1687 106.5,54.8353 107,82.5C 107.513,83.5266 108.013,84.5266 108.5,85.5C 106.628,88.5287 103.961,90.6954 100.5,92C 99.695,93.1127 99.0283,94.2794 98.5,95.5C 98.1667,95.5 97.8333,95.5 97.5,95.5C 95.564,91.6891 92.564,89.0225 88.5,87.5C 88.9175,86.7784 89.5842,86.2784 90.5,86C 88.0684,84.9125 88.4017,84.4125 91.5,84.5C 92.4663,56.5252 92.7997,28.5252 92.5,0.5C 94.099,0.767809 95.4324,0.434475 96.5,-0.5 Z"/></g>
<g><path style="opacity:1" fill="#abdedd" d="M 106.5,-0.5 C 109.167,-0.5 111.833,-0.5 114.5,-0.5C 114.277,33.5548 114.611,67.0548 115.5,100C 114.833,101 114.167,102 113.5,103C 115.403,104.447 117.07,106.114 118.5,108C 114.914,109.108 111.247,109.608 107.5,109.5C 108.953,108.175 108.619,107.342 106.5,107C 108.811,104.794 108.811,102.961 106.5,101.5C 110.814,96.6348 111.481,91.3015 108.5,85.5C 108.013,84.5266 107.513,83.5266 107,82.5C 106.5,54.8353 106.333,27.1687 106.5,-0.5 Z"/></g>
<g><path style="opacity:0.996" fill="#b0e0e0" d="M 114.5,-0.5 C 117.5,-0.5 120.5,-0.5 123.5,-0.5C 123.186,35.8641 123.519,72.1974 124.5,108.5C 122.801,108.34 121.134,108.506 119.5,109C 121.382,109.198 123.048,109.698 124.5,110.5C 122.801,110.34 121.134,110.506 119.5,111C 121.739,117.217 124.072,123.384 126.5,129.5C 126.5,129.833 126.5,130.167 126.5,130.5C 125.069,130.881 124.236,131.881 124,133.5C 123.5,163.498 123.333,193.498 123.5,223.5C 120.5,223.5 117.5,223.5 114.5,223.5C 114.581,189.109 114.581,154.943 114.5,121C 114.675,119.342 115.342,118.009 116.5,117C 114.67,116.818 113.003,117.318 111.5,118.5C 111.369,117.761 111.536,117.094 112,116.5C 114.654,115.428 116.821,113.761 118.5,111.5C 116.051,110.09 113.884,110.424 112,112.5C 110.599,110.808 108.766,110.141 106.5,110.5C 106.5,109.833 106.833,109.5 107.5,109.5C 111.247,109.608 114.914,109.108 118.5,108C 117.07,106.114 115.403,104.447 113.5,103C 114.167,102 114.833,101 115.5,100C 114.611,67.0548 114.277,33.5548 114.5,-0.5 Z"/></g>
<g><path style="opacity:0.994" fill="#b8e3e2" d="M 123.5,-0.5 C 124.5,-0.5 125.5,-0.5 126.5,-0.5C 128.265,0.461384 130.265,0.794717 132.5,0.5C 131.507,35.427 131.174,70.427 131.5,105.5C 133.103,105.312 134.437,105.812 135.5,107C 133.182,108.102 132.515,109.602 133.5,111.5C 132.107,115.51 130.607,119.51 129,123.5C 127.197,119.256 125.697,114.922 124.5,110.5C 123.048,109.698 121.382,109.198 119.5,109C 121.134,108.506 122.801,108.34 124.5,108.5C 123.519,72.1974 123.186,35.8641 123.5,-0.5 Z"/></g>
<g><path style="opacity:0.998" fill="#99d8d7" d="M 92.5,0.5 C 92.7997,28.5252 92.4663,56.5252 91.5,84.5C 88.4017,84.4125 88.0684,84.9125 90.5,86C 89.5842,86.2784 88.9175,86.7784 88.5,87.5C 87.3659,89.9664 87.1993,92.633 88,95.5C 89.914,97.8565 92.0807,99.8565 94.5,101.5C 93.448,101.351 92.448,101.517 91.5,102C 91.8333,102.333 92.1667,102.667 92.5,103C 91.3774,104.044 90.0441,104.71 88.5,105C 89.8333,106 89.8333,107 88.5,108C 86.5273,108.495 84.5273,108.662 82.5,108.5C 82.719,107.325 82.3857,106.325 81.5,105.5C 80.4937,105.938 80.4937,106.604 81.5,107.5C 80.675,108.386 79.675,108.719 78.5,108.5C 78.3266,73.4762 78.6599,38.4762 79.5,3.5C 83.7933,2.34342 88.1266,1.34342 92.5,0.5 Z"/></g>
<g><path style="opacity:0.997" fill="#bee6e5" d="M 132.5,0.5 C 136.4,1.80836 140.4,2.80836 144.5,3.5C 144.333,37.835 144.5,72.1683 145,106.5C 145.75,107.126 146.584,107.626 147.5,108C 146.584,108.278 145.918,108.778 145.5,109.5C 144.173,108.2 142.84,106.867 141.5,105.5C 141.245,107.343 141.078,109.343 141,111.5C 139.03,109.332 136.863,108.998 134.5,110.5C 133.833,110.5 133.5,110.833 133.5,111.5C 132.515,109.602 133.182,108.102 135.5,107C 134.437,105.812 133.103,105.312 131.5,105.5C 131.174,70.427 131.507,35.427 132.5,0.5 Z"/></g>
<g><path style="opacity:0.995" fill="#c9e9e9" d="M 144.5,3.5 C 150.071,5.46154 155.404,7.79487 160.5,10.5C 160.829,42.4067 160.496,74.24 159.5,106C 161.839,108.73 164.839,110.23 168.5,110.5C 166.717,114.06 165.717,114.06 165.5,110.5C 164.167,110.5 162.833,110.5 161.5,110.5C 161.5,116.833 161.5,123.167 161.5,129.5C 160.672,123.347 160.172,117.013 160,110.5C 159.826,115.684 159.326,120.684 158.5,125.5C 157.5,125.5 156.5,125.5 155.5,125.5C 155.666,121.154 155.499,116.821 155,112.5C 153.67,111.418 152.17,110.751 150.5,110.5C 149.081,109.549 147.415,109.216 145.5,109.5C 145.918,108.778 146.584,108.278 147.5,108C 146.584,107.626 145.75,107.126 145,106.5C 144.5,72.1683 144.333,37.835 144.5,3.5 Z"/></g>
<g><path style="opacity:0.992" fill="#89d0d0" d="M 69.5,7.5 C 69.8265,44.2395 69.4932,80.9061 68.5,117.5C 68.1667,117.5 67.8333,117.5 67.5,117.5C 68.3235,115.545 68.4901,113.545 68,111.5C 65.9927,116.838 62.1594,120.004 56.5,121C 55.6195,121.708 54.9528,122.542 54.5,123.5C 54.1667,124.167 53.8333,124.833 53.5,125.5C 52.5,125.5 51.5,125.5 50.5,125.5C 50.5,125.167 50.5,124.833 50.5,124.5C 52.2014,123.789 53.2014,122.455 53.5,120.5C 55.8327,117.997 57.9993,115.331 60,112.5C 60.7063,110.029 60.373,107.695 59,105.5C 58.79,107.058 58.29,108.391 57.5,109.5C 57.9088,105.501 57.0754,101.834 55,98.5C 54.6667,100.833 54.3333,103.167 54,105.5C 52.5576,107.391 51.3909,109.391 50.5,111.5C 49.596,112.209 49.2627,113.209 49.5,114.5C 48.6618,114.158 48.3284,113.492 48.5,112.5C 49.7389,109.411 51.2389,106.411 53,103.5C 53.4988,99.5138 53.6655,95.5138 53.5,91.5C 53.5,90.5 53.5,89.5 53.5,88.5C 49.7566,88.5408 49.5899,87.8741 53,86.5C 53.3333,86.8333 53.6667,87.1667 54,87.5C 54.5,63.1689 54.6666,38.8356 54.5,14.5C 59.0806,11.3777 64.0806,9.0444 69.5,7.5 Z"/></g>
<g><path style="opacity:0.995" fill="#d2edee" d="M 160.5,10.5 C 164.117,11.6417 167.45,13.3084 170.5,15.5C 169.511,46.6048 169.178,77.6048 169.5,108.5C 172.768,109.487 176.102,109.82 179.5,109.5C 179.634,111.292 179.301,112.958 178.5,114.5C 178.167,114.5 177.833,114.5 177.5,114.5C 177.489,112.983 176.823,111.816 175.5,111C 173.19,110.503 170.857,110.337 168.5,110.5C 164.839,110.23 161.839,108.73 159.5,106C 160.496,74.24 160.829,42.4067 160.5,10.5 Z"/></g>
<g><path style="opacity:0.992" fill="#d7f0f0" d="M 170.5,15.5 C 173.047,16.9336 175.381,18.6002 177.5,20.5C 177.333,48.8353 177.5,77.1686 178,105.5C 178.41,106.901 178.91,108.234 179.5,109.5C 176.102,109.82 172.768,109.487 169.5,108.5C 169.178,77.6048 169.511,46.6048 170.5,15.5 Z"/></g>
<g><path style="opacity:0.992" fill="#7bcbcc" d="M 54.5,14.5 C 54.6666,38.8356 54.5,63.1689 54,87.5C 53.6667,87.1667 53.3333,86.8333 53,86.5C 49.5899,87.8741 49.7566,88.5408 53.5,88.5C 53.5,89.5 53.5,90.5 53.5,91.5C 52.603,90.4019 51.7697,90.4019 51,91.5C 50.3923,93.1545 49.8923,94.8211 49.5,96.5C 47.5389,98.9635 45.3722,101.297 43,103.5C 41.7475,106.014 41.2475,108.68 41.5,111.5C 41.872,115.043 43.872,117.21 47.5,118C 49.1412,119.129 50.1412,120.629 50.5,122.5C 50.5,123.167 50.5,123.833 50.5,124.5C 49.3734,123.878 48.3734,123.045 47.5,122C 43.9957,121.697 40.6624,120.863 37.5,119.5C 34.0261,115.596 32.1927,110.929 32,105.5C 31.2206,110.318 31.7206,114.985 33.5,119.5C 32.8333,119.167 32.1667,118.833 31.5,118.5C 30.2214,113.551 30.2214,108.551 31.5,103.5C 34.3754,100.28 37.3754,97.1129 40.5,94C 37.8333,92.3333 37.8333,90.6667 40.5,89C 39.8742,88.2496 39.3742,87.4162 39,86.5C 38.8213,66.427 38.3213,46.427 37.5,26.5C 42.6405,21.7623 48.3071,17.7623 54.5,14.5 Z"/></g>
<g><path style="opacity:0.994" fill="#def2f1" d="M 177.5,20.5 C 181.817,23.4864 185.817,26.8197 189.5,30.5C 190.825,54.9752 190.825,79.1419 189.5,103C 187.5,103.667 185.5,104.333 183.5,105C 185.382,105.198 187.048,105.698 188.5,106.5C 186.833,106.5 185.167,106.5 183.5,106.5C 183.5,107.833 183.5,109.167 183.5,110.5C 182.5,110.5 181.5,110.5 180.5,110.5C 180.5,109.833 180.167,109.5 179.5,109.5C 178.91,108.234 178.41,106.901 178,105.5C 177.5,77.1686 177.333,48.8353 177.5,20.5 Z"/></g>
<g><path style="opacity:0.99" fill="#73c8c9" d="M 37.5,26.5 C 38.3213,46.427 38.8213,66.427 39,86.5C 39.3742,87.4162 39.8742,88.2496 40.5,89C 37.8333,90.6667 37.8333,92.3333 40.5,94C 37.3754,97.1129 34.3754,100.28 31.5,103.5C 30.2214,108.551 30.2214,113.551 31.5,118.5C 28.8075,121.581 27.8075,125.247 28.5,129.5C 27.4168,129.461 26.4168,129.127 25.5,128.5C 24.803,120.807 24.1364,113.14 23.5,105.5C 26.0443,103.608 26.0443,101.775 23.5,100C 24.2822,97.2595 24.7822,94.4262 25,91.5C 26.3431,92.2135 27.6764,91.8802 29,90.5C 29.4999,71.8363 29.6666,53.1696 29.5,34.5C 31.8333,31.5 34.5,28.8333 37.5,26.5 Z"/></g>
<g><path style="opacity:0.985" fill="#e8f6f6" d="M 189.5,30.5 C 193.831,33.9981 197.664,37.9981 201,42.5C 202.094,44.0779 202.928,45.7446 203.5,47.5C 202.167,90.1667 202.167,132.833 203.5,175.5C 202.928,177.255 202.094,178.922 201,180.5C 197.664,185.002 193.831,189.002 189.5,192.5C 190.308,174.21 190.808,155.877 191,137.5C 191.5,137 192,136.5 192.5,136C 190.002,134.914 188.002,133.247 186.5,131C 188.382,130.802 190.048,130.302 191.5,129.5C 194.838,128.807 195.338,127.14 193,124.5C 191.667,125.833 190.333,125.833 189,124.5C 188.502,121.183 188.335,117.85 188.5,114.5C 190.167,114.5 191.833,114.5 193.5,114.5C 193.5,113.167 193.5,111.833 193.5,110.5C 191.833,110.5 190.167,110.5 188.5,110.5C 188.5,109.167 188.5,107.833 188.5,106.5C 187.048,105.698 185.382,105.198 183.5,105C 185.5,104.333 187.5,103.667 189.5,103C 190.825,79.1419 190.825,54.9752 189.5,30.5 Z"/></g>
<g><path style="opacity:0.998" fill="#6cc7c6" d="M 29.5,34.5 C 29.6666,53.1696 29.4999,71.8363 29,90.5C 27.6764,91.8802 26.3431,92.2135 25,91.5C 24.7822,94.4262 24.2822,97.2595 23.5,100C 26.0443,101.775 26.0443,103.608 23.5,105.5C 24.1364,113.14 24.803,120.807 25.5,128.5C 26.4168,129.127 27.4168,129.461 28.5,129.5C 29.1538,148.53 28.4871,167.197 26.5,185.5C 22.7501,181.66 19.7501,177.327 17.5,172.5C 17.5,131.833 17.5,91.1667 17.5,50.5C 20.3529,44.3128 24.3529,38.9795 29.5,34.5 Z"/></g>
<g><path style="opacity:0.982" fill="#65c3c3" d="M 17.5,50.5 C 17.5,91.1667 17.5,131.833 17.5,172.5C 13.6042,167.726 10.4375,162.392 8,156.5C 4.20575,146.64 1.37242,136.64 -0.5,126.5C -0.5,116.5 -0.5,106.5 -0.5,96.5C 1.37242,86.3597 4.20575,76.3597 8,66.5C 10.4375,60.6076 13.6042,55.2742 17.5,50.5 Z"/></g>
<g><path style="opacity:0.998" fill="#eef9f9" d="M 203.5,47.5 C 206.579,50.6505 208.913,54.3171 210.5,58.5C 210.5,93.8333 210.5,129.167 210.5,164.5C 208.913,168.683 206.579,172.35 203.5,175.5C 202.167,132.833 202.167,90.1667 203.5,47.5 Z"/></g>
<g><path style="opacity:0.97" fill="#f6fbfc" d="M 210.5,58.5 C 217.234,70.3695 221.567,83.0362 223.5,96.5C 223.5,106.5 223.5,116.5 223.5,126.5C 221.567,139.964 217.234,152.63 210.5,164.5C 210.5,129.167 210.5,93.8333 210.5,58.5 Z"/></g>
<g><path style="opacity:1" fill="#10653b" d="M 108.5,85.5 C 111.481,91.3015 110.814,96.6348 106.5,101.5C 103.657,102.172 101.157,103.505 99,105.5C 98.805,104.181 98.9717,102.847 99.5,101.5C 102.302,98.5242 104.969,95.3575 107.5,92C 104.168,93.9972 101.335,96.8305 99,100.5C 98.5065,98.8659 98.3398,97.1992 98.5,95.5C 99.0283,94.2794 99.695,93.1127 100.5,92C 103.961,90.6954 106.628,88.5287 108.5,85.5 Z"/></g>
<g><path style="opacity:1" fill="#89c165" d="M 88.5,87.5 C 92.564,89.0225 95.564,91.6891 97.5,95.5C 97.5,96.5 97.5,97.5 97.5,98.5C 96.8333,99.5 96.1667,100.5 95.5,101.5C 95.1667,101.5 94.8333,101.5 94.5,101.5C 92.0807,99.8565 89.914,97.8565 88,95.5C 87.1993,92.633 87.3659,89.9664 88.5,87.5 Z"/></g>
<g><path style="opacity:1" fill="#4f9fcf" d="M 53.5,91.5 C 53.6655,95.5138 53.4988,99.5138 53,103.5C 51.2389,106.411 49.7389,109.411 48.5,112.5C 47.0335,115.258 46.3668,114.925 46.5,111.5C 46.3385,107.156 47.8385,103.489 51,100.5C 51.995,97.8738 52.3283,95.2071 52,92.5C 51.7996,94.3197 50.9663,95.653 49.5,96.5C 49.8923,94.8211 50.3923,93.1545 51,91.5C 51.7697,90.4019 52.603,90.4019 53.5,91.5 Z"/></g>
<g><path style="opacity:1" fill="#62a78e" d="M 99.5,101.5 C 97.9519,101.179 97.2852,100.179 97.5,98.5C 97.5,97.5 97.5,96.5 97.5,95.5C 97.8333,95.5 98.1667,95.5 98.5,95.5C 98.3398,97.1992 98.5065,98.8659 99,100.5C 101.335,96.8305 104.168,93.9972 107.5,92C 104.969,95.3575 102.302,98.5242 99.5,101.5 Z"/></g>
<g><path style="opacity:1" fill="#137bbb" d="M 46.5,111.5 C 44.8333,114.167 43.1667,114.167 41.5,111.5C 41.2475,108.68 41.7475,106.014 43,103.5C 45.3722,101.297 47.5389,98.9635 49.5,96.5C 50.9663,95.653 51.7996,94.3197 52,92.5C 52.3283,95.2071 51.995,97.8738 51,100.5C 47.8385,103.489 46.3385,107.156 46.5,111.5 Z"/></g>
<g><path style="opacity:0.997" fill="#a5dcdc" d="M 97.5,98.5 C 97.2852,100.179 97.9519,101.179 99.5,101.5C 98.9717,102.847 98.805,104.181 99,105.5C 101.157,103.505 103.657,102.172 106.5,101.5C 108.811,102.961 108.811,104.794 106.5,107C 108.619,107.342 108.953,108.175 107.5,109.5C 106.833,109.5 106.5,109.833 106.5,110.5C 106.5,116.833 106.5,123.167 106.5,129.5C 107.091,130.151 107.757,130.818 108.5,131.5C 106.577,132.308 104.577,132.808 102.5,133C 103.766,133.309 104.933,133.809 106,134.5C 106.5,164.165 106.667,193.831 106.5,223.5C 103.167,223.5 99.8333,223.5 96.5,223.5C 96.5,223.167 96.5,222.833 96.5,222.5C 96.6666,194.165 96.5,165.831 96,137.5C 94.049,135.863 94.2157,134.363 96.5,133C 95.5494,132.282 95.3828,131.449 96,130.5C 97.9483,129.891 99.7816,129.224 101.5,128.5C 101.5,122.5 101.5,116.5 101.5,110.5C 99.8333,110.5 98.1667,110.5 96.5,110.5C 95.4502,110.095 95.4502,109.429 96.5,108.5C 95.3112,107.571 93.9778,107.238 92.5,107.5C 92.6509,104.282 93.4842,103.949 95,106.5C 96.7884,104.977 96.9551,103.31 95.5,101.5C 96.1667,100.5 96.8333,99.5 97.5,98.5 Z"/></g>
<g><path style="opacity:1" fill="#42435f" d="M 57.5,109.5 C 55.5305,111.647 53.6971,113.98 52,116.5C 50.7308,115.095 50.2308,113.429 50.5,111.5C 51.3909,109.391 52.5576,107.391 54,105.5C 54.3333,103.167 54.6667,100.833 55,98.5C 57.0754,101.834 57.9088,105.501 57.5,109.5 Z"/></g>
<g><path style="opacity:1" fill="#375473" d="M 41.5,111.5 C 43.1667,114.167 44.8333,114.167 46.5,111.5C 46.3668,114.925 47.0335,115.258 48.5,112.5C 48.3284,113.492 48.6618,114.158 49.5,114.5C 49.7239,116.787 50.3906,118.953 51.5,121C 51.4301,121.765 51.0967,122.265 50.5,122.5C 50.1412,120.629 49.1412,119.129 47.5,118C 43.872,117.21 41.872,115.043 41.5,111.5 Z"/></g>
<g><path style="opacity:1" fill="#20323f" d="M 106.5,110.5 C 108.766,110.141 110.599,110.808 112,112.5C 113.884,110.424 116.051,110.09 118.5,111.5C 116.821,113.761 114.654,115.428 112,116.5C 111.536,117.094 111.369,117.761 111.5,118.5C 111.5,122.167 111.5,125.833 111.5,129.5C 109.833,129.5 108.167,129.5 106.5,129.5C 106.5,123.167 106.5,116.833 106.5,110.5 Z"/></g>
<g><path style="opacity:0.994" fill="#dff2f2" d="M 179.5,109.5 C 180.167,109.5 180.5,109.833 180.5,110.5C 180.5,111.833 180.5,113.167 180.5,114.5C 181.5,114.5 182.5,114.5 183.5,114.5C 183.133,118.967 183.633,123.3 185,127.5C 186.789,129.229 188.956,129.896 191.5,129.5C 190.048,130.302 188.382,130.802 186.5,131C 188.002,133.247 190.002,134.914 192.5,136C 192,136.5 191.5,137 191,137.5C 190.808,155.877 190.308,174.21 189.5,192.5C 185.817,196.18 181.817,199.514 177.5,202.5C 176.867,179.542 177.534,156.709 179.5,134C 179.2,131.976 178.367,131.476 177,132.5C 175.482,131.837 174.315,130.837 173.5,129.5C 175.167,129.5 176.833,129.5 178.5,129.5C 178.5,124.5 178.5,119.5 178.5,114.5C 179.301,112.958 179.634,111.292 179.5,109.5 Z"/></g>
<g><path style="opacity:1" fill="#22313e" d="M 150.5,110.5 C 152.17,110.751 153.67,111.418 155,112.5C 155.499,116.821 155.666,121.154 155.5,125.5C 156.5,125.5 157.5,125.5 158.5,125.5C 158.843,127.483 158.176,128.817 156.5,129.5C 154.418,129.528 152.584,128.861 151,127.5C 150.617,128.056 150.117,128.389 149.5,128.5C 148.833,128.833 148.167,129.167 147.5,129.5C 141.003,129.82 138.836,126.82 141,120.5C 143.659,119.065 146.492,118.065 149.5,117.5C 150.429,116.311 150.762,114.978 150.5,113.5C 147.495,113.253 144.995,114.253 143,116.5C 139.5,114.333 139.667,112.5 143.5,111C 145.81,110.503 148.143,110.337 150.5,110.5 Z"/></g>
<g><path style="opacity:1" fill="#73939f" d="M 57.5,109.5 C 57.6495,110.552 57.4828,111.552 57,112.5C 53.7667,114.597 52.6,117.264 53.5,120.5C 53.2014,122.455 52.2014,123.789 50.5,124.5C 50.5,123.833 50.5,123.167 50.5,122.5C 51.0967,122.265 51.4301,121.765 51.5,121C 50.3906,118.953 49.7239,116.787 49.5,114.5C 49.2627,113.209 49.596,112.209 50.5,111.5C 50.2308,113.429 50.7308,115.095 52,116.5C 53.6971,113.98 55.5305,111.647 57.5,109.5 Z"/></g>
<g><path style="opacity:1" fill="#433148" d="M 53.5,120.5 C 52.6,117.264 53.7667,114.597 57,112.5C 57.4828,111.552 57.6495,110.552 57.5,109.5C 58.29,108.391 58.79,107.058 59,105.5C 60.373,107.695 60.7063,110.029 60,112.5C 57.9993,115.331 55.8327,117.997 53.5,120.5 Z"/></g>
<g><path style="opacity:0.998" fill="#9ad7d7" d="M 94.5,101.5 C 94.8333,101.5 95.1667,101.5 95.5,101.5C 96.9551,103.31 96.7884,104.977 95,106.5C 93.4842,103.949 92.6509,104.282 92.5,107.5C 93.9778,107.238 95.3112,107.571 96.5,108.5C 95.4502,109.429 95.4502,110.095 96.5,110.5C 96.5,116.5 96.5,122.5 96.5,128.5C 98.1667,128.5 99.8333,128.5 101.5,128.5C 99.7816,129.224 97.9483,129.891 96,130.5C 95.3828,131.449 95.5494,132.282 96.5,133C 94.2157,134.363 94.049,135.863 96,137.5C 96.5,165.831 96.6666,194.165 96.5,222.5C 90.6865,222.296 85.0198,221.296 79.5,219.5C 78.8293,191.042 78.1627,162.542 77.5,134C 78.2321,132.235 79.5654,131.068 81.5,130.5C 79.4476,130.295 77.1143,130.295 74.5,130.5C 74.1697,123.468 74.503,116.468 75.5,109.5C 76.4168,108.873 77.4168,108.539 78.5,108.5C 79.675,108.719 80.675,108.386 81.5,107.5C 80.4937,106.604 80.4937,105.938 81.5,105.5C 82.3857,106.325 82.719,107.325 82.5,108.5C 84.5273,108.662 86.5273,108.495 88.5,108C 89.8333,107 89.8333,106 88.5,105C 90.0441,104.71 91.3774,104.044 92.5,103C 92.1667,102.667 91.8333,102.333 91.5,102C 92.448,101.517 93.448,101.351 94.5,101.5 Z"/></g>
<g><path style="opacity:1" fill="#172836" d="M 75.5,110.5 C 76.8333,110.5 78.1667,110.5 79.5,110.5C 79.3505,111.552 79.5172,112.552 80,113.5C 83.6667,109.5 87.3333,109.5 91,113.5C 91.4993,118.489 91.6659,123.489 91.5,128.5C 90.1667,128.5 88.8333,128.5 87.5,128.5C 87.6657,124.154 87.499,119.821 87,115.5C 84.4082,114.018 82.0749,114.352 80,116.5C 79.5012,120.486 79.3345,124.486 79.5,128.5C 78.1667,128.5 76.8333,128.5 75.5,128.5C 75.5,122.5 75.5,116.5 75.5,110.5 Z"/></g>
<g><path style="opacity:1" fill="#232f39" d="M 188.5,106.5 C 188.5,107.833 188.5,109.167 188.5,110.5C 190.167,110.5 191.833,110.5 193.5,110.5C 193.5,111.833 193.5,113.167 193.5,114.5C 191.833,114.5 190.167,114.5 188.5,114.5C 188.335,117.85 188.502,121.183 189,124.5C 190.333,125.833 191.667,125.833 193,124.5C 195.338,127.14 194.838,128.807 191.5,129.5C 188.956,129.896 186.789,129.229 185,127.5C 183.633,123.3 183.133,118.967 183.5,114.5C 182.5,114.5 181.5,114.5 180.5,114.5C 180.5,113.167 180.5,111.833 180.5,110.5C 181.5,110.5 182.5,110.5 183.5,110.5C 183.5,109.167 183.5,107.833 183.5,106.5C 185.167,106.5 186.833,106.5 188.5,106.5 Z"/></g>
<g><path style="opacity:1" fill="#1a2935" d="M 168.5,110.5 C 170.857,110.337 173.19,110.503 175.5,111C 176.823,111.816 177.489,112.983 177.5,114.5C 177.5,119.167 177.5,123.833 177.5,128.5C 176.167,128.5 174.833,128.5 173.5,128.5C 173.666,124.154 173.499,119.821 173,115.5C 170.408,114.018 168.075,114.352 166,116.5C 165.501,120.821 165.334,125.154 165.5,129.5C 164.167,129.5 162.833,129.5 161.5,129.5C 161.5,123.167 161.5,116.833 161.5,110.5C 162.833,110.5 164.167,110.5 165.5,110.5C 165.717,114.06 166.717,114.06 168.5,110.5 Z"/></g>
<g><path style="opacity:0.991" fill="#74c9c9" d="M 31.5,118.5 C 32.1667,118.833 32.8333,119.167 33.5,119.5C 35.137,121.475 36.8036,123.475 38.5,125.5C 38.8579,128.143 39.1912,130.81 39.5,133.5C 38.8333,154.53 38.1666,175.53 37.5,196.5C 33.5,193.167 29.8333,189.5 26.5,185.5C 28.4871,167.197 29.1538,148.53 28.5,129.5C 27.8075,125.247 28.8075,121.581 31.5,118.5 Z"/></g>
<g><path style="opacity:1" fill="#29567c" d="M 67.5,117.5 C 67.0679,118.71 66.4013,119.71 65.5,120.5C 62.1593,122.5 58.4926,123.5 54.5,123.5C 54.9528,122.542 55.6195,121.708 56.5,121C 62.1594,120.004 65.9927,116.838 68,111.5C 68.4901,113.545 68.3235,115.545 67.5,117.5 Z"/></g>
<g><path style="opacity:1" fill="#28393a" d="M 96.5,110.5 C 98.1667,110.5 99.8333,110.5 101.5,110.5C 101.5,116.5 101.5,122.5 101.5,128.5C 99.8333,128.5 98.1667,128.5 96.5,128.5C 96.5,122.5 96.5,116.5 96.5,110.5 Z"/></g>
<g><path style="opacity:1" fill="#acdedd" d="M 114.5,223.5 C 111.833,223.5 109.167,223.5 106.5,223.5C 106.667,193.831 106.5,164.165 106,134.5C 104.933,133.809 103.766,133.309 102.5,133C 104.577,132.808 106.577,132.308 108.5,131.5C 107.757,130.818 107.091,130.151 106.5,129.5C 108.167,129.5 109.833,129.5 111.5,129.5C 111.5,125.833 111.5,122.167 111.5,118.5C 113.003,117.318 114.67,116.818 116.5,117C 115.342,118.009 114.675,119.342 114.5,121C 114.581,154.943 114.581,189.109 114.5,223.5 Z"/></g>
<g><path style="opacity:1" fill="#5e696f" d="M 177.5,114.5 C 177.833,114.5 178.167,114.5 178.5,114.5C 178.5,119.5 178.5,124.5 178.5,129.5C 176.833,129.5 175.167,129.5 173.5,129.5C 173.5,129.167 173.5,128.833 173.5,128.5C 174.833,128.5 176.167,128.5 177.5,128.5C 177.5,123.833 177.5,119.167 177.5,114.5 Z"/></g>
<g><path style="opacity:1" fill="#1d2d3a" d="M 124.5,110.5 C 125.697,114.922 127.197,119.256 129,123.5C 130.607,119.51 132.107,115.51 133.5,111.5C 133.5,110.833 133.833,110.5 134.5,110.5C 135.873,110.343 137.207,110.51 138.5,111C 135.945,116.662 133.778,122.496 132,128.5C 130.301,129.406 128.467,129.739 126.5,129.5C 124.072,123.384 121.739,117.217 119.5,111C 121.134,110.506 122.801,110.34 124.5,110.5 Z"/></g>
<g><path style="opacity:0.996" fill="#bde3e3" d="M 145.5,109.5 C 147.415,109.216 149.081,109.549 150.5,110.5C 148.143,110.337 145.81,110.503 143.5,111C 139.667,112.5 139.5,114.333 143,116.5C 144.995,114.253 147.495,113.253 150.5,113.5C 150.762,114.978 150.429,116.311 149.5,117.5C 146.492,118.065 143.659,119.065 141,120.5C 138.836,126.82 141.003,129.82 147.5,129.5C 145.052,130.473 142.385,130.806 139.5,130.5C 139.36,132.124 140.027,133.29 141.5,134C 139.828,162.682 138.828,191.515 138.5,220.5C 136.5,221.167 134.5,221.833 132.5,222.5C 131.525,192.813 131.191,163.146 131.5,133.5C 132.167,132.833 132.833,132.167 133.5,131.5C 131.257,130.526 128.924,130.192 126.5,130.5C 126.5,130.167 126.5,129.833 126.5,129.5C 128.467,129.739 130.301,129.406 132,128.5C 133.778,122.496 135.945,116.662 138.5,111C 137.207,110.51 135.873,110.343 134.5,110.5C 136.863,108.998 139.03,109.332 141,111.5C 141.078,109.343 141.245,107.343 141.5,105.5C 142.84,106.867 144.173,108.2 145.5,109.5 Z"/></g>
<g><path style="opacity:1" fill="#bedadd" d="M 146.5,120.5 C 147.833,120.5 149.167,120.5 150.5,120.5C 150.5,122.167 150.5,123.833 150.5,125.5C 148.5,125.5 146.5,125.5 144.5,125.5C 144.392,123.486 145.058,121.82 146.5,120.5 Z"/></g>
<g><path style="opacity:1" fill="#127ebd" d="M 37.5,119.5 C 40.6624,120.863 43.9957,121.697 47.5,122C 48.3734,123.045 49.3734,123.878 50.5,124.5C 50.5,124.833 50.5,125.167 50.5,125.5C 46.5371,125.911 42.8705,125.078 39.5,123C 38.1772,122.184 37.5106,121.017 37.5,119.5 Z"/></g>
<g><path style="opacity:1" fill="#365074" d="M 37.5,119.5 C 37.5106,121.017 38.1772,122.184 39.5,123C 42.8705,125.078 46.5371,125.911 50.5,125.5C 51.5,125.5 52.5,125.5 53.5,125.5C 53.6309,126.376 53.2975,127.043 52.5,127.5C 50.2324,126.456 47.8991,126.289 45.5,127C 47.9368,128.375 50.6035,128.875 53.5,128.5C 51.3926,129.468 49.0593,129.802 46.5,129.5C 43.9261,127.976 41.2594,126.642 38.5,125.5C 36.8036,123.475 35.137,121.475 33.5,119.5C 31.7206,114.985 31.2206,110.318 32,105.5C 32.1927,110.929 34.0261,115.596 37.5,119.5 Z"/></g>
<g><path style="opacity:1" fill="#403753" d="M 65.5,120.5 C 62.8619,125.127 58.8619,127.794 53.5,128.5C 50.6035,128.875 47.9368,128.375 45.5,127C 47.8991,126.289 50.2324,126.456 52.5,127.5C 53.2975,127.043 53.6309,126.376 53.5,125.5C 53.8333,124.833 54.1667,124.167 54.5,123.5C 58.4926,123.5 62.1593,122.5 65.5,120.5 Z"/></g>
<g><path style="opacity:0.991" fill="#8ad1d0" d="M 67.5,117.5 C 67.8333,117.5 68.1667,117.5 68.5,117.5C 69.7251,118.152 70.3917,119.319 70.5,121C 70.1734,122.813 69.5067,124.48 68.5,126C 69.0382,128.102 70.0382,128.935 71.5,128.5C 69.5192,157.343 68.8525,186.343 69.5,215.5C 64.0806,213.956 59.0806,211.622 54.5,208.5C 54.1826,186.3 54.5159,164.134 55.5,142C 54.3312,138.177 53.3312,134.344 52.5,130.5C 50.2646,130.795 48.2646,130.461 46.5,129.5C 49.0593,129.802 51.3926,129.468 53.5,128.5C 58.8619,127.794 62.8619,125.127 65.5,120.5C 66.4013,119.71 67.0679,118.71 67.5,117.5 Z"/></g>
<g><path style="opacity:0.994" fill="#d3eeee" d="M 161.5,129.5 C 162.833,129.5 164.167,129.5 165.5,129.5C 165.334,125.154 165.501,120.821 166,116.5C 168.075,114.352 170.408,114.018 173,115.5C 173.499,119.821 173.666,124.154 173.5,128.5C 173.5,128.833 173.5,129.167 173.5,129.5C 174.315,130.837 175.482,131.837 177,132.5C 178.367,131.476 179.2,131.976 179.5,134C 177.534,156.709 176.867,179.542 177.5,202.5C 172.359,206.623 166.692,209.956 160.5,212.5C 160.445,185.067 160.445,157.733 160.5,130.5C 158.901,130.768 157.568,130.434 156.5,129.5C 158.176,128.817 158.843,127.483 158.5,125.5C 159.326,120.684 159.826,115.684 160,110.5C 160.172,117.013 160.672,123.347 161.5,129.5 Z"/></g>
<g><path style="opacity:0.997" fill="#90d4d3" d="M 79.5,3.5 C 78.6599,38.4762 78.3266,73.4762 78.5,108.5C 77.4168,108.539 76.4168,108.873 75.5,109.5C 74.503,116.468 74.1697,123.468 74.5,130.5C 77.1143,130.295 79.4476,130.295 81.5,130.5C 79.5654,131.068 78.2321,132.235 77.5,134C 78.1627,162.542 78.8293,191.042 79.5,219.5C 75.8733,218.679 72.54,217.346 69.5,215.5C 68.8525,186.343 69.5192,157.343 71.5,128.5C 70.0382,128.935 69.0382,128.102 68.5,126C 69.5067,124.48 70.1734,122.813 70.5,121C 70.3917,119.319 69.7251,118.152 68.5,117.5C 69.4932,80.9061 69.8265,44.2395 69.5,7.5C 72.54,5.65412 75.8733,4.32079 79.5,3.5 Z"/></g>
<g><path style="opacity:0.994" fill="#caeaea" d="M 156.5,129.5 C 157.568,130.434 158.901,130.768 160.5,130.5C 160.445,157.733 160.445,185.067 160.5,212.5C 156.901,214.928 152.901,216.594 148.5,217.5C 148.333,189.498 148.5,161.498 149,133.5C 149.654,134.696 150.154,134.696 150.5,133.5C 149.975,132.808 149.308,132.308 148.5,132C 149.337,130.989 149.67,129.822 149.5,128.5C 150.117,128.389 150.617,128.056 151,127.5C 152.584,128.861 154.418,129.528 156.5,129.5 Z"/></g>
<g><path style="opacity:0.994" fill="#7ecdcd" d="M 38.5,125.5 C 41.2594,126.642 43.9261,127.976 46.5,129.5C 48.2646,130.461 50.2646,130.795 52.5,130.5C 53.3312,134.344 54.3312,138.177 55.5,142C 54.5159,164.134 54.1826,186.3 54.5,208.5C 48.3071,205.238 42.6405,201.238 37.5,196.5C 38.1666,175.53 38.8333,154.53 39.5,133.5C 39.1912,130.81 38.8579,128.143 38.5,125.5 Z"/></g>
<g><path style="opacity:0.993" fill="#b8e3e2" d="M 126.5,130.5 C 128.924,130.192 131.257,130.526 133.5,131.5C 132.833,132.167 132.167,132.833 131.5,133.5C 131.191,163.146 131.525,192.813 132.5,222.5C 130.265,222.205 128.265,222.539 126.5,223.5C 125.5,223.5 124.5,223.5 123.5,223.5C 123.333,193.498 123.5,163.498 124,133.5C 124.236,131.881 125.069,130.881 126.5,130.5 Z"/></g>
<g><path style="opacity:0.994" fill="#c3e8e8" d="M 149.5,128.5 C 149.67,129.822 149.337,130.989 148.5,132C 149.308,132.308 149.975,132.808 150.5,133.5C 150.154,134.696 149.654,134.696 149,133.5C 148.5,161.498 148.333,189.498 148.5,217.5C 145.45,219.101 142.116,220.101 138.5,220.5C 138.828,191.515 139.828,162.682 141.5,134C 140.027,133.29 139.36,132.124 139.5,130.5C 142.385,130.806 145.052,130.473 147.5,129.5C 148.167,129.167 148.833,128.833 149.5,128.5 Z"/></g>
</svg>
